<mxfile host="app.diagrams.net" modified="2023-04-05T23:42:07.912Z" agent="Mozilla/5.0 (Macintosh; Intel Mac OS X 10_15_7) AppleWebKit/537.36 (KHTML, like Gecko) Chrome/111.0.0.0 Safari/537.36" etag="4FqueRaWg5hGXd5yRVaQ" version="21.1.4" type="github">
  <diagram name="Page-1" id="c7558073-3199-34d8-9f00-42111426c3f3">
    <mxGraphModel dx="1660" dy="513" grid="1" gridSize="10" guides="1" tooltips="1" connect="1" arrows="1" fold="1" page="1" pageScale="1" pageWidth="826" pageHeight="1169" background="none" math="0" shadow="0">
      <root>
        <mxCell id="0" />
        <mxCell id="1" parent="0" />
        <mxCell id="87" value="" style="edgeStyle=elbowEdgeStyle;elbow=vertical;strokeColor=#990000;strokeWidth=2;entryX=0.455;entryY=0.995;entryDx=0;entryDy=0;entryPerimeter=0;exitX=0.5;exitY=0;exitDx=0;exitDy=0;" parent="1" source="m2E1bTaKXVmhdD45sBwT-120" target="m2E1bTaKXVmhdD45sBwT-138" edge="1">
          <mxGeometry width="100" height="100" relative="1" as="geometry">
            <mxPoint x="376.9999999999999" y="1089.996976744186" as="sourcePoint" />
            <mxPoint x="313.5" y="1089.996976744186" as="targetPoint" />
            <Array as="points">
              <mxPoint x="410" y="1070" />
            </Array>
          </mxGeometry>
        </mxCell>
        <mxCell id="1T5ogeQw5huNj0ChWTJ9-96" value="真&lt;br&gt;机&lt;br&gt;平&lt;br&gt;台" style="rounded=1;whiteSpace=wrap;html=1;fillColor=#ffe6cc;strokeColor=#FFB570;" parent="1" vertex="1">
          <mxGeometry x="50" y="761" width="31" height="140" as="geometry" />
        </mxCell>
        <mxCell id="1T5ogeQw5huNj0ChWTJ9-97" value="" style="rounded=1;whiteSpace=wrap;html=1;strokeColor=#d79b00;fillColor=none;" parent="1" vertex="1">
          <mxGeometry x="140" y="724.5" width="82" height="225" as="geometry" />
        </mxCell>
        <mxCell id="1T5ogeQw5huNj0ChWTJ9-98" value="数据存储" style="rounded=1;whiteSpace=wrap;html=1;strokeColor=#BD7000;fillColor=#f0a30a;fontColor=#000000;" parent="1" vertex="1">
          <mxGeometry x="151" y="741" width="60" height="20" as="geometry" />
        </mxCell>
        <mxCell id="1T5ogeQw5huNj0ChWTJ9-101" value="" style="shape=singleArrow;whiteSpace=wrap;html=1;strokeColor=#FFB570;fillColor=#FFCC99;" parent="1" vertex="1">
          <mxGeometry x="81" y="815" width="59" height="10" as="geometry" />
        </mxCell>
        <mxCell id="1T5ogeQw5huNj0ChWTJ9-108" value="" style="shape=waypoint;sketch=0;fillStyle=solid;size=6;pointerEvents=1;points=[];fillColor=#f0a30a;resizable=0;rotatable=0;perimeter=centerPerimeter;snapToPoint=1;strokeColor=#BD7000;fontColor=#000000;" parent="1" vertex="1">
          <mxGeometry x="163" y="854.5" width="40" height="40" as="geometry" />
        </mxCell>
        <mxCell id="1T5ogeQw5huNj0ChWTJ9-110" value="数据预处理" style="text;html=1;align=center;verticalAlign=middle;resizable=0;points=[];autosize=1;strokeColor=none;fillColor=none;" parent="1" vertex="1">
          <mxGeometry x="143" y="924.5" width="80" height="30" as="geometry" />
        </mxCell>
        <mxCell id="1T5ogeQw5huNj0ChWTJ9-116" value="文本识别模型" style="html=1;fontColor=#333333;fontStyle=1;align=left;verticalAlign=top;spacing=0;labelBorderColor=none;fillColor=#f5f5f5;dashed=1;strokeWidth=2;strokeColor=#666666;spacingLeft=4;spacingTop=-3;" parent="1" vertex="1">
          <mxGeometry x="293" y="840" width="200" height="120" as="geometry" />
        </mxCell>
        <mxCell id="m2E1bTaKXVmhdD45sBwT-104" value="Parser" style="rounded=1;whiteSpace=wrap;html=1;fontSize=10;fillColor=#d0cee2;strokeColor=#56517e;" vertex="1" parent="1">
          <mxGeometry x="320" y="920" width="50" height="17" as="geometry" />
        </mxCell>
        <mxCell id="m2E1bTaKXVmhdD45sBwT-106" value="BERT" style="rounded=1;whiteSpace=wrap;html=1;fontSize=10;fillColor=#d0cee2;strokeColor=#56517e;" vertex="1" parent="1">
          <mxGeometry x="320" y="863" width="50" height="17" as="geometry" />
        </mxCell>
        <mxCell id="m2E1bTaKXVmhdD45sBwT-108" value="规则引擎" style="rounded=1;whiteSpace=wrap;html=1;fontSize=10;fillColor=#d0cee2;strokeColor=#56517e;" vertex="1" parent="1">
          <mxGeometry x="320" y="893" width="50" height="17" as="geometry" />
        </mxCell>
        <mxCell id="m2E1bTaKXVmhdD45sBwT-110" style="edgeStyle=orthogonalEdgeStyle;rounded=0;orthogonalLoop=1;jettySize=auto;html=1;exitX=0.5;exitY=1;exitDx=0;exitDy=0;" edge="1" parent="1" source="m2E1bTaKXVmhdD45sBwT-104" target="m2E1bTaKXVmhdD45sBwT-104">
          <mxGeometry relative="1" as="geometry" />
        </mxCell>
        <mxCell id="m2E1bTaKXVmhdD45sBwT-118" value="ATAP&lt;br&gt;测&lt;br&gt;试&lt;br&gt;平&lt;br&gt;台" style="rounded=1;whiteSpace=wrap;html=1;fillColor=#fad7ac;strokeColor=#b46504;" vertex="1" parent="1">
          <mxGeometry x="822.5" y="665" width="34" height="180" as="geometry" />
        </mxCell>
        <mxCell id="m2E1bTaKXVmhdD45sBwT-120" value="训练语料" style="shape=datastore;whiteSpace=wrap;html=1;fillColor=#dae8fc;gradientColor=#7ea6e0;strokeColor=#6c8ebf;" vertex="1" parent="1">
          <mxGeometry x="376" y="1090" width="50" height="40" as="geometry" />
        </mxCell>
        <mxCell id="m2E1bTaKXVmhdD45sBwT-121" value="" style="shape=actor;whiteSpace=wrap;html=1;" vertex="1" parent="1">
          <mxGeometry x="829.5" y="990" width="20" height="29.5" as="geometry" />
        </mxCell>
        <mxCell id="m2E1bTaKXVmhdD45sBwT-128" value="数据整理" style="rounded=1;whiteSpace=wrap;html=1;fillColor=#f5f5f5;gradientColor=#b3b3b3;strokeColor=#666666;" vertex="1" parent="1">
          <mxGeometry x="587.74" y="1090" width="84" height="40" as="geometry" />
        </mxCell>
        <mxCell id="m2E1bTaKXVmhdD45sBwT-137" value="NLP模型" style="rounded=1;whiteSpace=wrap;html=1;fillColor=#D0CEE2;strokeColor=#D0CEE2;" vertex="1" parent="1">
          <mxGeometry x="436" y="1000" width="64" height="40" as="geometry" />
        </mxCell>
        <mxCell id="m2E1bTaKXVmhdD45sBwT-138" value="&amp;nbsp;CV模型" style="rounded=1;whiteSpace=wrap;html=1;fillColor=#6D8764;strokeColor=#6D8764;" vertex="1" parent="1">
          <mxGeometry x="293" y="1000" width="64" height="40" as="geometry" />
        </mxCell>
        <mxCell id="m2E1bTaKXVmhdD45sBwT-140" value="CV+NLP" style="swimlane;whiteSpace=wrap;html=1;strokeColor=#10739e;fillColor=#b1ddf0;" vertex="1" parent="1">
          <mxGeometry x="271" y="665" width="239" height="310" as="geometry" />
        </mxCell>
        <mxCell id="m2E1bTaKXVmhdD45sBwT-146" value="" style="endArrow=classic;html=1;rounded=0;strokeColor=#990000;strokeWidth=2;" edge="1" parent="m2E1bTaKXVmhdD45sBwT-140">
          <mxGeometry width="50" height="50" relative="1" as="geometry">
            <mxPoint x="49" y="335" as="sourcePoint" />
            <mxPoint x="49" y="305" as="targetPoint" />
          </mxGeometry>
        </mxCell>
        <mxCell id="m2E1bTaKXVmhdD45sBwT-147" value="" style="endArrow=classic;html=1;rounded=0;strokeColor=#990000;strokeWidth=2;" edge="1" parent="m2E1bTaKXVmhdD45sBwT-140">
          <mxGeometry width="50" height="50" relative="1" as="geometry">
            <mxPoint x="196.76999999999998" y="335" as="sourcePoint" />
            <mxPoint x="196.76999999999998" y="305" as="targetPoint" />
          </mxGeometry>
        </mxCell>
        <mxCell id="1T5ogeQw5huNj0ChWTJ9-107" value="" style="shape=waypoint;sketch=0;fillStyle=solid;size=6;pointerEvents=1;points=[];fillColor=none;resizable=0;rotatable=0;perimeter=centerPerimeter;snapToPoint=1;strokeColor=#D5E8D4;" parent="m2E1bTaKXVmhdD45sBwT-140" vertex="1">
          <mxGeometry x="65" y="110" width="40" height="40" as="geometry" />
        </mxCell>
        <mxCell id="1T5ogeQw5huNj0ChWTJ9-114" value="图片识别模型" style="html=1;fontStyle=1;align=left;verticalAlign=top;spacing=0;labelBorderColor=none;dashed=1;strokeWidth=2;spacingLeft=4;spacingTop=-3;strokeColor=#666666;fillColor=#f5f5f5;fontColor=#333333;" parent="m2E1bTaKXVmhdD45sBwT-140" vertex="1">
          <mxGeometry x="21" y="35" width="197" height="111.5" as="geometry" />
        </mxCell>
        <mxCell id="m2E1bTaKXVmhdD45sBwT-96" value="&lt;font style=&quot;font-size: 10px;&quot;&gt;数据增强&lt;/font&gt;" style="rounded=1;whiteSpace=wrap;html=1;fontSize=10;fillColor=#6d8764;fontColor=#ffffff;strokeColor=#3A5431;" vertex="1" parent="m2E1bTaKXVmhdD45sBwT-140">
          <mxGeometry x="45" y="115" width="50" height="17" as="geometry" />
        </mxCell>
        <mxCell id="m2E1bTaKXVmhdD45sBwT-98" value="&lt;font style=&quot;font-size: 10px;&quot;&gt;颜色空间&lt;/font&gt;" style="rounded=1;whiteSpace=wrap;html=1;fontSize=10;fillColor=#6d8764;fontColor=#ffffff;strokeColor=#3A5431;" vertex="1" parent="m2E1bTaKXVmhdD45sBwT-140">
          <mxGeometry x="136" y="115" width="50" height="17" as="geometry" />
        </mxCell>
        <mxCell id="m2E1bTaKXVmhdD45sBwT-99" value="图像分割" style="rounded=1;whiteSpace=wrap;html=1;fontSize=10;fillColor=#6d8764;fontColor=#ffffff;strokeColor=#3A5431;" vertex="1" parent="m2E1bTaKXVmhdD45sBwT-140">
          <mxGeometry x="45" y="86" width="50" height="17" as="geometry" />
        </mxCell>
        <mxCell id="m2E1bTaKXVmhdD45sBwT-100" value="特征提取" style="rounded=1;whiteSpace=wrap;html=1;fontSize=10;fillColor=#6d8764;fontColor=#ffffff;strokeColor=#3A5431;" vertex="1" parent="m2E1bTaKXVmhdD45sBwT-140">
          <mxGeometry x="136" y="86" width="50" height="17" as="geometry" />
        </mxCell>
        <mxCell id="m2E1bTaKXVmhdD45sBwT-102" value="图像分类" style="rounded=1;whiteSpace=wrap;html=1;fontSize=10;fillColor=#6d8764;fontColor=#ffffff;strokeColor=#3A5431;" vertex="1" parent="m2E1bTaKXVmhdD45sBwT-140">
          <mxGeometry x="45" y="55" width="50" height="17" as="geometry" />
        </mxCell>
        <mxCell id="m2E1bTaKXVmhdD45sBwT-103" value="目标识别" style="rounded=1;whiteSpace=wrap;html=1;fontSize=10;fillColor=#6d8764;fontColor=#ffffff;strokeColor=#3A5431;" vertex="1" parent="m2E1bTaKXVmhdD45sBwT-140">
          <mxGeometry x="136" y="55" width="50" height="17" as="geometry" />
        </mxCell>
        <mxCell id="m2E1bTaKXVmhdD45sBwT-107" value="多模态" style="rounded=1;whiteSpace=wrap;html=1;fontSize=10;fillColor=#d0cee2;strokeColor=#56517e;" vertex="1" parent="m2E1bTaKXVmhdD45sBwT-140">
          <mxGeometry x="136" y="195" width="50" height="17" as="geometry" />
        </mxCell>
        <mxCell id="m2E1bTaKXVmhdD45sBwT-105" value="DSL" style="rounded=1;whiteSpace=wrap;html=1;fontSize=10;fillColor=#d0cee2;strokeColor=#56517e;" vertex="1" parent="m2E1bTaKXVmhdD45sBwT-140">
          <mxGeometry x="136" y="225" width="50" height="17" as="geometry" />
        </mxCell>
        <mxCell id="m2E1bTaKXVmhdD45sBwT-109" value="CRF" style="rounded=1;whiteSpace=wrap;html=1;fontSize=10;fillColor=#d0cee2;strokeColor=#56517e;" vertex="1" parent="m2E1bTaKXVmhdD45sBwT-140">
          <mxGeometry x="136" y="255" width="50" height="17" as="geometry" />
        </mxCell>
        <mxCell id="m2E1bTaKXVmhdD45sBwT-141" value="" style="edgeStyle=elbowEdgeStyle;elbow=vertical;strokeColor=#990000;strokeWidth=2;entryX=0.549;entryY=1.059;entryDx=0;entryDy=0;entryPerimeter=0;" edge="1" parent="1" source="m2E1bTaKXVmhdD45sBwT-120" target="m2E1bTaKXVmhdD45sBwT-137">
          <mxGeometry width="100" height="100" relative="1" as="geometry">
            <mxPoint x="430.4999999999999" y="1089.996976744186" as="sourcePoint" />
            <mxPoint x="371.5" y="1050" as="targetPoint" />
            <Array as="points">
              <mxPoint x="440" y="1070" />
            </Array>
          </mxGeometry>
        </mxCell>
        <mxCell id="m2E1bTaKXVmhdD45sBwT-237" style="edgeStyle=orthogonalEdgeStyle;rounded=0;orthogonalLoop=1;jettySize=auto;html=1;exitX=0.5;exitY=0;exitDx=0;exitDy=0;entryX=0.5;entryY=1;entryDx=0;entryDy=0;strokeColor=#990000;strokeWidth=2;" edge="1" parent="1" source="m2E1bTaKXVmhdD45sBwT-156" target="m2E1bTaKXVmhdD45sBwT-200">
          <mxGeometry relative="1" as="geometry" />
        </mxCell>
        <mxCell id="m2E1bTaKXVmhdD45sBwT-156" value="规则配置" style="swimlane;fontStyle=0;childLayout=stackLayout;horizontal=1;startSize=30;horizontalStack=0;resizeParent=1;resizeParentMax=0;resizeLast=0;collapsible=1;marginBottom=0;whiteSpace=wrap;html=1;fontSize=8;" vertex="1" parent="1">
          <mxGeometry x="587.74" y="990" width="100" height="90" as="geometry" />
        </mxCell>
        <mxCell id="m2E1bTaKXVmhdD45sBwT-157" value="&lt;font style=&quot;font-size: 11px;&quot;&gt;字典&lt;/font&gt;" style="text;align=left;verticalAlign=middle;spacingLeft=4;spacingRight=4;overflow=hidden;points=[[0,0.5],[1,0.5]];portConstraint=eastwest;rotatable=0;whiteSpace=wrap;html=1;fillColor=#eeeeee;strokeColor=#36393d;" vertex="1" parent="m2E1bTaKXVmhdD45sBwT-156">
          <mxGeometry y="30" width="100" height="20" as="geometry" />
        </mxCell>
        <mxCell id="m2E1bTaKXVmhdD45sBwT-158" value="Python" style="text;align=left;verticalAlign=middle;spacingLeft=4;spacingRight=4;overflow=hidden;points=[[0,0.5],[1,0.5]];portConstraint=eastwest;rotatable=0;whiteSpace=wrap;html=1;fillColor=#f9f7ed;strokeColor=#36393d;" vertex="1" parent="m2E1bTaKXVmhdD45sBwT-156">
          <mxGeometry y="50" width="100" height="20" as="geometry" />
        </mxCell>
        <mxCell id="m2E1bTaKXVmhdD45sBwT-159" value="DSL" style="text;align=left;verticalAlign=middle;spacingLeft=4;spacingRight=4;overflow=hidden;points=[[0,0.5],[1,0.5]];portConstraint=eastwest;rotatable=0;whiteSpace=wrap;html=1;fillColor=#f5f5f5;fontColor=#333333;strokeColor=#666666;" vertex="1" parent="m2E1bTaKXVmhdD45sBwT-156">
          <mxGeometry y="70" width="100" height="20" as="geometry" />
        </mxCell>
        <mxCell id="m2E1bTaKXVmhdD45sBwT-168" value="" style="edgeStyle=elbowEdgeStyle;elbow=vertical;strokeColor=#990000;strokeWidth=2;entryX=0.5;entryY=1;entryDx=0;entryDy=0;" edge="1" parent="1" source="1T5ogeQw5huNj0ChWTJ9-110" target="m2E1bTaKXVmhdD45sBwT-128">
          <mxGeometry width="100" height="100" relative="1" as="geometry">
            <mxPoint x="91" y="1108" as="sourcePoint" />
            <mxPoint x="160" y="1070" as="targetPoint" />
            <Array as="points">
              <mxPoint x="470" y="1150" />
              <mxPoint x="480" y="1140" />
              <mxPoint x="380" y="1130" />
              <mxPoint x="129" y="1098" />
            </Array>
          </mxGeometry>
        </mxCell>
        <mxCell id="m2E1bTaKXVmhdD45sBwT-174" value="" style="endArrow=classic;html=1;rounded=0;strokeColor=#990000;strokeWidth=2;exitX=0;exitY=0.5;exitDx=0;exitDy=0;" edge="1" parent="1" source="m2E1bTaKXVmhdD45sBwT-128">
          <mxGeometry width="50" height="50" relative="1" as="geometry">
            <mxPoint x="575" y="1099.77" as="sourcePoint" />
            <mxPoint x="430" y="1110" as="targetPoint" />
          </mxGeometry>
        </mxCell>
        <mxCell id="m2E1bTaKXVmhdD45sBwT-236" value="更新语料" style="edgeLabel;html=1;align=center;verticalAlign=middle;resizable=0;points=[];" vertex="1" connectable="0" parent="m2E1bTaKXVmhdD45sBwT-174">
          <mxGeometry x="0.0128" y="1" relative="1" as="geometry">
            <mxPoint as="offset" />
          </mxGeometry>
        </mxCell>
        <mxCell id="m2E1bTaKXVmhdD45sBwT-179" value="图片解析" style="rounded=1;whiteSpace=wrap;html=1;strokeColor=#BD7000;fillColor=#f0a30a;fontColor=#000000;" vertex="1" parent="1">
          <mxGeometry x="150" y="771" width="60" height="20" as="geometry" />
        </mxCell>
        <mxCell id="m2E1bTaKXVmhdD45sBwT-180" value="视频切帧" style="rounded=1;whiteSpace=wrap;html=1;strokeColor=#BD7000;fillColor=#f0a30a;fontColor=#000000;" vertex="1" parent="1">
          <mxGeometry x="151" y="804.5" width="60" height="20" as="geometry" />
        </mxCell>
        <mxCell id="m2E1bTaKXVmhdD45sBwT-181" value="" style="shape=waypoint;sketch=0;fillStyle=solid;size=6;pointerEvents=1;points=[];fillColor=#f0a30a;resizable=0;rotatable=0;perimeter=centerPerimeter;snapToPoint=1;strokeColor=#BD7000;fontColor=#000000;" vertex="1" parent="1">
          <mxGeometry x="163" y="874.5" width="40" height="40" as="geometry" />
        </mxCell>
        <mxCell id="m2E1bTaKXVmhdD45sBwT-182" value="文本解析" style="rounded=1;whiteSpace=wrap;html=1;strokeColor=#BD7000;fillColor=#f0a30a;fontColor=#000000;" vertex="1" parent="1">
          <mxGeometry x="151" y="838" width="60" height="20" as="geometry" />
        </mxCell>
        <mxCell id="m2E1bTaKXVmhdD45sBwT-183" value="预处理" style="rounded=1;whiteSpace=wrap;html=1;strokeColor=#BD7000;fillColor=#f0a30a;fontColor=#000000;" vertex="1" parent="1">
          <mxGeometry x="153" y="904.5" width="60" height="20" as="geometry" />
        </mxCell>
        <mxCell id="m2E1bTaKXVmhdD45sBwT-185" value="" style="shape=waypoint;sketch=0;fillStyle=solid;size=6;pointerEvents=1;points=[];fillColor=#f0a30a;resizable=0;rotatable=0;perimeter=centerPerimeter;snapToPoint=1;strokeColor=#BD7000;fontColor=#000000;" vertex="1" parent="1">
          <mxGeometry x="163" y="864.5" width="40" height="40" as="geometry" />
        </mxCell>
        <mxCell id="m2E1bTaKXVmhdD45sBwT-186" value="" style="shape=singleArrow;whiteSpace=wrap;html=1;strokeColor=#FFB570;fillColor=#FFCC99;" vertex="1" parent="1">
          <mxGeometry x="220" y="815" width="51" height="10" as="geometry" />
        </mxCell>
        <mxCell id="m2E1bTaKXVmhdD45sBwT-189" value="模型在&amp;nbsp; &amp;nbsp; 线重训" style="text;html=1;align=center;verticalAlign=middle;resizable=0;points=[];autosize=1;strokeColor=none;fillColor=none;fontColor=#FF6666;" vertex="1" parent="1">
          <mxGeometry x="346" y="1040" width="110" height="30" as="geometry" />
        </mxCell>
        <mxCell id="m2E1bTaKXVmhdD45sBwT-190" value="&lt;font style=&quot;font-size: 16px;&quot;&gt;音画不一致智能测试体系&lt;/font&gt;" style="text;html=1;align=center;verticalAlign=middle;resizable=0;points=[];autosize=1;strokeColor=none;fillColor=none;" vertex="1" parent="1">
          <mxGeometry x="-2" y="665" width="200" height="30" as="geometry" />
        </mxCell>
        <mxCell id="m2E1bTaKXVmhdD45sBwT-192" value="ML算法" style="rounded=1;whiteSpace=wrap;html=1;fillColor=#f5f5f5;strokeColor=#666666;gradientColor=#b3b3b3;" vertex="1" parent="1">
          <mxGeometry x="366" y="1000" width="64" height="40" as="geometry" />
        </mxCell>
        <mxCell id="m2E1bTaKXVmhdD45sBwT-194" value="" style="endArrow=classic;html=1;rounded=0;strokeColor=#990000;strokeWidth=2;" edge="1" parent="1">
          <mxGeometry width="50" height="50" relative="1" as="geometry">
            <mxPoint x="401.77" y="1070" as="sourcePoint" />
            <mxPoint x="401.77" y="1040" as="targetPoint" />
          </mxGeometry>
        </mxCell>
        <mxCell id="m2E1bTaKXVmhdD45sBwT-195" value="" style="endArrow=classic;html=1;rounded=0;strokeColor=#990000;strokeWidth=2;" edge="1" parent="1">
          <mxGeometry width="50" height="50" relative="1" as="geometry">
            <mxPoint x="397.77" y="1000" as="sourcePoint" />
            <mxPoint x="397.77" y="970" as="targetPoint" />
          </mxGeometry>
        </mxCell>
        <mxCell id="m2E1bTaKXVmhdD45sBwT-200" value="Diff检测" style="swimlane;whiteSpace=wrap;html=1;strokeColor=#36393d;fillColor=#cce5ff;" vertex="1" parent="1">
          <mxGeometry x="535.05" y="665" width="205.38" height="309.5" as="geometry" />
        </mxCell>
        <mxCell id="m2E1bTaKXVmhdD45sBwT-214" value="音音不一致检测" style="html=1;fontStyle=1;align=left;verticalAlign=top;spacing=0;labelBorderColor=none;dashed=1;strokeWidth=2;spacingLeft=4;spacingTop=-3;strokeColor=#666666;fillColor=#f5f5f5;fontColor=#333333;" vertex="1" parent="m2E1bTaKXVmhdD45sBwT-200">
          <mxGeometry x="13.12" y="230" width="176.88" height="60" as="geometry" />
        </mxCell>
        <mxCell id="m2E1bTaKXVmhdD45sBwT-216" value="画画不一致检测" style="html=1;fontStyle=1;align=left;verticalAlign=top;spacing=0;labelBorderColor=none;dashed=1;strokeWidth=2;spacingLeft=4;spacingTop=-3;strokeColor=#666666;fillColor=#f5f5f5;fontColor=#333333;" vertex="1" parent="m2E1bTaKXVmhdD45sBwT-200">
          <mxGeometry x="13.12" y="35" width="176.88" height="55" as="geometry" />
        </mxCell>
        <mxCell id="m2E1bTaKXVmhdD45sBwT-113" value="音画不一致检测" style="html=1;fontStyle=1;align=left;verticalAlign=top;spacing=0;labelBorderColor=none;dashed=1;strokeWidth=2;spacingLeft=4;spacingTop=-3;strokeColor=#9999FF;fillColor=#f5f5f5;fontColor=#333333;" vertex="1" parent="m2E1bTaKXVmhdD45sBwT-200">
          <mxGeometry x="13.120000000000005" y="130" width="180" height="70" as="geometry" />
        </mxCell>
        <mxCell id="m2E1bTaKXVmhdD45sBwT-114" value="映射" style="rounded=1;whiteSpace=wrap;html=1;fontSize=10;fillColor=#fad7ac;strokeColor=#b46504;" vertex="1" parent="m2E1bTaKXVmhdD45sBwT-200">
          <mxGeometry x="16.870000000000005" y="158" width="50" height="17" as="geometry" />
        </mxCell>
        <mxCell id="m2E1bTaKXVmhdD45sBwT-115" value="匹配" style="rounded=1;whiteSpace=wrap;html=1;fontSize=10;fillColor=#fad7ac;strokeColor=#b46504;" vertex="1" parent="m2E1bTaKXVmhdD45sBwT-200">
          <mxGeometry x="75.87" y="158" width="50" height="17" as="geometry" />
        </mxCell>
        <mxCell id="m2E1bTaKXVmhdD45sBwT-116" value="Diff" style="rounded=1;whiteSpace=wrap;html=1;fontSize=10;fillColor=#fad7ac;strokeColor=#b46504;" vertex="1" parent="m2E1bTaKXVmhdD45sBwT-200">
          <mxGeometry x="135.87" y="158" width="50" height="17" as="geometry" />
        </mxCell>
        <mxCell id="m2E1bTaKXVmhdD45sBwT-217" value="动作映射" style="rounded=1;whiteSpace=wrap;html=1;fontSize=10;fillColor=#fad7ac;strokeColor=#b46504;" vertex="1" parent="m2E1bTaKXVmhdD45sBwT-200">
          <mxGeometry x="24.950000000000003" y="55" width="63.13" height="25" as="geometry" />
        </mxCell>
        <mxCell id="m2E1bTaKXVmhdD45sBwT-218" value="不一致规则" style="rounded=1;whiteSpace=wrap;html=1;fontSize=10;fillColor=#fad7ac;strokeColor=#b46504;" vertex="1" parent="m2E1bTaKXVmhdD45sBwT-200">
          <mxGeometry x="114.95000000000005" y="55" width="63.13" height="25" as="geometry" />
        </mxCell>
        <mxCell id="m2E1bTaKXVmhdD45sBwT-219" value="元素匹配" style="rounded=1;whiteSpace=wrap;html=1;fontSize=10;fillColor=#fad7ac;strokeColor=#b46504;" vertex="1" parent="m2E1bTaKXVmhdD45sBwT-200">
          <mxGeometry x="24.950000000000045" y="255" width="63.13" height="25" as="geometry" />
        </mxCell>
        <mxCell id="m2E1bTaKXVmhdD45sBwT-220" value="有效Diff判定" style="rounded=1;whiteSpace=wrap;html=1;fontSize=10;fillColor=#fad7ac;strokeColor=#b46504;" vertex="1" parent="m2E1bTaKXVmhdD45sBwT-200">
          <mxGeometry x="110" y="255" width="68.08" height="25" as="geometry" />
        </mxCell>
        <mxCell id="m2E1bTaKXVmhdD45sBwT-240" value="" style="shape=singleArrow;whiteSpace=wrap;html=1;strokeColor=#FFB570;fillColor=#FFCC99;" vertex="1" parent="m2E1bTaKXVmhdD45sBwT-200">
          <mxGeometry x="-26.05" y="155" width="26.05" height="5" as="geometry" />
        </mxCell>
        <mxCell id="m2E1bTaKXVmhdD45sBwT-222" value="" style="shape=singleArrow;whiteSpace=wrap;html=1;strokeColor=#FFB570;fillColor=#FFCC99;rotation=-90;" vertex="1" parent="1">
          <mxGeometry x="765" y="912.5" width="146.5" height="10.5" as="geometry" />
        </mxCell>
        <mxCell id="m2E1bTaKXVmhdD45sBwT-225" value="" style="edgeStyle=elbowEdgeStyle;elbow=vertical;strokeColor=#990000;strokeWidth=2;entryX=1;entryY=0.75;entryDx=0;entryDy=0;exitX=1.06;exitY=0.407;exitDx=0;exitDy=0;exitPerimeter=0;" edge="1" parent="1" source="m2E1bTaKXVmhdD45sBwT-118" target="m2E1bTaKXVmhdD45sBwT-121">
          <mxGeometry width="100" height="100" relative="1" as="geometry">
            <mxPoint x="1006.5" y="735" as="sourcePoint" />
            <mxPoint x="986.5" y="919.5" as="targetPoint" />
            <Array as="points">
              <mxPoint x="886.5" y="825" />
              <mxPoint x="1016.5" y="945" />
              <mxPoint x="976.5" y="1079.5" />
              <mxPoint x="1004.5" y="924" />
            </Array>
          </mxGeometry>
        </mxCell>
        <mxCell id="m2E1bTaKXVmhdD45sBwT-226" value="结果确认" style="edgeLabel;html=1;align=center;verticalAlign=middle;resizable=0;points=[];" vertex="1" connectable="0" parent="m2E1bTaKXVmhdD45sBwT-225">
          <mxGeometry x="-0.2577" y="-1" relative="1" as="geometry">
            <mxPoint as="offset" />
          </mxGeometry>
        </mxCell>
        <mxCell id="m2E1bTaKXVmhdD45sBwT-227" value="Bug提交" style="text;html=1;align=center;verticalAlign=middle;resizable=0;points=[];autosize=1;strokeColor=none;fillColor=none;" vertex="1" parent="1">
          <mxGeometry x="803.25" y="885" width="70" height="30" as="geometry" />
        </mxCell>
        <mxCell id="m2E1bTaKXVmhdD45sBwT-232" value="" style="endArrow=classic;html=1;rounded=0;strokeColor=#990000;strokeWidth=2;exitX=0;exitY=0.5;exitDx=0;exitDy=0;" edge="1" parent="1">
          <mxGeometry width="50" height="50" relative="1" as="geometry">
            <mxPoint x="838" y="1000" as="sourcePoint" />
            <mxPoint x="690" y="1000" as="targetPoint" />
          </mxGeometry>
        </mxCell>
        <mxCell id="m2E1bTaKXVmhdD45sBwT-234" value="业务规则" style="edgeLabel;html=1;align=center;verticalAlign=middle;resizable=0;points=[];" vertex="1" connectable="0" parent="m2E1bTaKXVmhdD45sBwT-232">
          <mxGeometry x="0.0547" y="-1" relative="1" as="geometry">
            <mxPoint as="offset" />
          </mxGeometry>
        </mxCell>
        <mxCell id="m2E1bTaKXVmhdD45sBwT-233" value="" style="endArrow=classic;html=1;rounded=0;strokeColor=#990000;strokeWidth=2;" edge="1" parent="1">
          <mxGeometry width="50" height="50" relative="1" as="geometry">
            <mxPoint x="840" y="1019.5" as="sourcePoint" />
            <mxPoint x="671.74" y="1109.27" as="targetPoint" />
            <Array as="points">
              <mxPoint x="840" y="1110" />
            </Array>
          </mxGeometry>
        </mxCell>
        <mxCell id="m2E1bTaKXVmhdD45sBwT-235" value="数据回流" style="edgeLabel;html=1;align=center;verticalAlign=middle;resizable=0;points=[];" vertex="1" connectable="0" parent="m2E1bTaKXVmhdD45sBwT-233">
          <mxGeometry x="-0.5861" y="-1" relative="1" as="geometry">
            <mxPoint as="offset" />
          </mxGeometry>
        </mxCell>
        <mxCell id="m2E1bTaKXVmhdD45sBwT-238" value="" style="shape=singleArrow;whiteSpace=wrap;html=1;strokeColor=#FFB570;fillColor=#FFCC99;" vertex="1" parent="1">
          <mxGeometry x="740.43" y="815" width="79.57" height="15" as="geometry" />
        </mxCell>
        <mxCell id="m2E1bTaKXVmhdD45sBwT-239" value="&amp;nbsp;Diff结果" style="text;html=1;align=center;verticalAlign=middle;resizable=0;points=[];autosize=1;strokeColor=none;fillColor=none;" vertex="1" parent="1">
          <mxGeometry x="745" y="805" width="70" height="30" as="geometry" />
        </mxCell>
      </root>
    </mxGraphModel>
  </diagram>
</mxfile>
